<?xml version="1.0" encoding="utf-8"?>
<!-- Generator: Adobe Illustrator 19.1.0, SVG Export Plug-In . SVG Version: 6.00 Build 0)  -->
<svg version="1.1" id="Layer_1" xmlns="http://www.w3.org/2000/svg" xmlns:xlink="http://www.w3.org/1999/xlink" x="0px" y="0px"
	 viewBox="0 0 1440 300" style="enable-background:new 0 0 1440 300;" xml:space="preserve">
<style type="text/css">
	.st0{fill:#FFFFFF;stroke:#FFFFFF;stroke-width:5;stroke-miterlimit:10;}
</style>
<path class="st0" d="M104.5,108.3c-4-2.4-8.1-4.5-12.4-6.4c-3.6-1.6-7.6-3.1-12.1-4.5c-4.5-1.4-8.8-2.1-13.1-2.1
	c-3.5,0-6.2,0.5-8.3,1.6c-2.1,1.1-3.1,2.9-3.1,5.4c0,1.9,0.6,3.4,1.8,4.6s2.9,2.3,5.2,3.3c2.3,1,5,2,8.3,2.9c3.3,0.9,7,2.1,11.1,3.4
	c6.5,2,12.4,4.2,17.7,6.6c5.3,2.4,9.8,5.2,13.5,8.5c3.7,3.3,6.6,7.2,8.6,11.9c2,4.7,3,10.3,3,17c0,8.5-1.6,15.7-4.7,21.5
	c-3.1,5.8-7.3,10.4-12.4,13.9c-5.1,3.5-10.9,6-17.4,7.5c-6.5,1.5-13,2.3-19.5,2.3c-5.2,0-10.5-0.4-16-1.2
	c-5.5-0.8-10.9-1.9-16.3-3.4c-5.4-1.5-10.6-3.2-15.6-5.2s-9.6-4.3-13.9-6.8l16.8-34.2c4.7,2.9,9.5,5.5,14.6,7.8
	c4.3,2,9.1,3.8,14.5,5.4c5.4,1.6,10.9,2.4,16.5,2.4c4.3,0,7.2-0.6,8.9-1.7c1.7-1.1,2.5-2.6,2.5-4.5c0-2-0.8-3.7-2.5-5.1
	c-1.7-1.4-4-2.6-6.9-3.7c-2.9-1.1-6.3-2.1-10.1-3.2c-3.8-1.1-7.8-2.3-12.1-3.8c-6.3-2.1-11.7-4.4-16.2-6.9
	c-4.5-2.5-8.3-5.3-11.2-8.4c-2.9-3.1-5.1-6.7-6.5-10.7c-1.4-4-2.1-8.6-2.1-13.8c0-7.9,1.4-14.8,4.3-20.8c2.9-6,6.8-11,11.7-15
	c4.9-4,10.6-7,16.9-9.1c6.3-2.1,13-3.1,20.1-3.1c5.2,0,10.3,0.5,15.2,1.5c4.9,1,9.7,2.3,14.3,3.8c4.6,1.5,8.9,3.2,12.9,5
	c4,1.8,7.6,3.5,10.8,5.1L104.5,108.3z"/>
<path class="st0" d="M252.5,95.9h-40.8v108h-39v-108h-41v-34h120.8V95.9z"/>
<path class="st0" d="M367.9,169.9v34H266.7v-142h99.4v34h-60.4v20h51.6v31.6h-51.6v22.4H367.9z"/>
<path class="st0" d="M386.1,203.9v-142h61.2c6.9,0,13.3,1.4,19.2,4.3c5.9,2.9,10.9,6.6,15.1,11.2s7.5,9.9,9.9,15.8
	c2.4,5.9,3.6,11.9,3.6,17.9c0,6.3-1.1,12.4-3.4,18.3c-2.3,5.9-5.4,11.2-9.5,15.8c-4.1,4.6-9,8.3-14.8,11c-5.8,2.7-12.2,4.1-19.1,4.1
	h-23.2v43.6H386.1z M425.1,126.3h20.6c2.4,0,4.6-1.1,6.7-3.3c2.1-2.2,3.1-6.2,3.1-11.9c0-5.9-1.2-9.9-3.6-12
	c-2.4-2.1-4.8-3.2-7.2-3.2h-19.6V126.3z"/>
<path class="st0" d="M636.3,61.9v142h-39v-55.6h-47.6v55.6h-39v-142h39v52.4h47.6V61.9H636.3z"/>
<path class="st0" d="M697.5,61.9h35.6l49.2,142h-39.6l-8.6-27.8h-37.8l-8.4,27.8h-39.8L697.5,61.9z M727.9,150.1l-12.6-44l-13.2,44
	H727.9z"/>
<path class="st0" d="M833.1,134.1v69.8h-39v-142h30.4l57,72.2V61.9h39v142h-31L833.1,134.1z"/>
<path class="st0" d="M944.9,203.9v-142h39v142H944.9z"/>
<path class="st0" d="M1109.5,169.9v34h-101.2v-142h99.4v34h-60.4v20h51.6v31.6h-51.6v22.4H1109.5z"/>
<path class="st0" d="M1298.3,61.9v142h-39v-55.6h-47.6v55.6h-39v-142h39v52.4h47.6V61.9H1298.3z"/>
<path class="st0" d="M1423.9,169.9v34h-101.2v-142h99.4v34h-60.4v20h51.6v31.6h-51.6v22.4H1423.9z"/>
</svg>
