<?xml version="1.0" encoding="utf-8"?>
<!-- Generator: Adobe Illustrator 19.1.0, SVG Export Plug-In . SVG Version: 6.00 Build 0)  -->
<svg version="1.1" id="Layer_1" xmlns="http://www.w3.org/2000/svg" xmlns:xlink="http://www.w3.org/1999/xlink" x="0px" y="0px"
	 viewBox="0 0 612 792" style="enable-background:new 0 0 612 792;" xml:space="preserve">
<style type="text/css">
	.st0{fill:#FFFFFF;stroke:#FFFFFF;stroke-miterlimit:10;}
</style>
<path class="st0" d="M122,367.3c-1.2-0.7-2.4-1.4-3.7-1.9c-1.1-0.5-2.3-0.9-3.6-1.4c-1.3-0.4-2.7-0.6-3.9-0.6c-1,0-1.9,0.2-2.5,0.5
	c-0.6,0.3-0.9,0.9-0.9,1.6c0,0.6,0.2,1,0.5,1.4c0.4,0.4,0.9,0.7,1.6,1c0.7,0.3,1.5,0.6,2.5,0.9c1,0.3,2.1,0.6,3.3,1
	c2,0.6,3.7,1.3,5.3,2c1.6,0.7,2.9,1.6,4,2.6c1.1,1,2,2.2,2.6,3.6c0.6,1.4,0.9,3.1,0.9,5.1c0,2.6-0.5,4.7-1.4,6.5
	c-0.9,1.7-2.2,3.1-3.7,4.2c-1.5,1-3.3,1.8-5.2,2.2c-1.9,0.5-3.9,0.7-5.9,0.7c-1.6,0-3.2-0.1-4.8-0.4c-1.6-0.2-3.3-0.6-4.9-1
	c-1.6-0.4-3.2-1-4.7-1.6s-2.9-1.3-4.2-2l5-10.3c1.4,0.9,2.9,1.7,4.4,2.3c1.3,0.6,2.7,1.1,4.3,1.6c1.6,0.5,3.3,0.7,5,0.7
	c1.3,0,2.2-0.2,2.7-0.5c0.5-0.3,0.8-0.8,0.8-1.4c0-0.6-0.2-1.1-0.8-1.5c-0.5-0.4-1.2-0.8-2.1-1.1c-0.9-0.3-1.9-0.6-3-1
	c-1.1-0.3-2.4-0.7-3.6-1.1c-1.9-0.6-3.5-1.3-4.9-2.1c-1.4-0.7-2.5-1.6-3.4-2.5c-0.9-0.9-1.5-2-2-3.2c-0.4-1.2-0.6-2.6-0.6-4.1
	c0-2.4,0.4-4.4,1.3-6.2c0.9-1.8,2-3.3,3.5-4.5c1.5-1.2,3.2-2.1,5.1-2.7c1.9-0.6,3.9-0.9,6-0.9c1.6,0,3.1,0.1,4.6,0.5
	c1.5,0.3,2.9,0.7,4.3,1.1c1.4,0.5,2.7,1,3.9,1.5c1.2,0.5,2.3,1.1,3.2,1.5L122,367.3z"/>
<path class="st0" d="M166.4,363.6h-12.2V396h-11.7v-32.4h-12.3v-10.2h36.2V363.6z"/>
<path class="st0" d="M201.1,385.8V396h-30.4v-42.6h29.8v10.2h-18.1v6h15.5v9.5h-15.5v6.7H201.1z"/>
<path class="st0" d="M206.5,396v-42.6h18.4c2.1,0,4,0.4,5.8,1.3c1.8,0.9,3.3,2,4.5,3.4c1.3,1.4,2.2,3,3,4.7c0.7,1.8,1.1,3.6,1.1,5.4
	c0,1.9-0.3,3.7-1,5.5c-0.7,1.8-1.6,3.4-2.8,4.7c-1.2,1.4-2.7,2.5-4.4,3.3c-1.7,0.8-3.7,1.2-5.7,1.2h-7V396H206.5z M218.2,372.7h6.2
	c0.7,0,1.4-0.3,2-1c0.6-0.7,0.9-1.8,0.9-3.6c0-1.8-0.4-3-1.1-3.6c-0.7-0.6-1.4-1-2.2-1h-5.9V372.7z"/>
<path class="st0" d="M281.6,353.4V396h-11.7v-16.7h-14.3V396h-11.7v-42.6h11.7v15.7h14.3v-15.7H281.6z"/>
<path class="st0" d="M299.9,353.4h10.7l14.8,42.6h-11.9l-2.6-8.3h-11.3l-2.5,8.3h-11.9L299.9,353.4z M309.1,379.9l-3.8-13.2l-4,13.2
	H309.1z"/>
<path class="st0" d="M340.6,375.1V396h-11.7v-42.6h9.1l17.1,21.7v-21.7h11.7V396h-9.3L340.6,375.1z"/>
<path class="st0" d="M374.2,396v-42.6h11.7V396H374.2z"/>
<path class="st0" d="M423.5,385.8V396h-30.4v-42.6H423v10.2h-18.1v6h15.5v9.5h-15.5v6.7H423.5z"/>
<path class="st0" d="M480.2,353.4V396h-11.7v-16.7h-14.3V396h-11.7v-42.6h11.7v15.7h14.3v-15.7H480.2z"/>
<path class="st0" d="M517.9,385.8V396h-30.4v-42.6h29.8v10.2h-18.1v6h15.5v9.5h-15.5v6.7H517.9z"/>
</svg>
